<svg id="svg" version="1.1" xmlns="http://www.w3.org/2000/svg" xmlns:xlink="http://www.w3.org/1999/xlink" width="400" height="276.3358778625954" viewBox="0, 0, 400,276.3358778625954"><g id="svgg"><path id="path0" d="M74.107 167.146 C 73.283 167.370,72.302 167.794,71.927 168.089 C 71.552 168.383,71.029 168.625,70.764 168.625 C 69.638 168.625,68.830 171.682,69.774 172.372 C 71.120 173.356,71.242 177.793,70.035 181.894 C 69.171 184.832,69.176 193.011,70.044 195.625 C 71.188 199.072,71.221 203.915,70.107 205.080 C 68.604 206.652,69.881 209.599,72.331 210.214 C 72.718 210.311,73.378 210.645,73.797 210.955 C 75.702 212.363,90.188 213.051,94.540 211.939 C 104.447 209.410,109.564 199.025,103.963 192.816 C 103.687 192.510,103.057 191.426,102.563 190.407 L 101.664 188.554 103.424 186.499 C 107.110 182.195,107.675 174.966,104.567 171.868 C 102.715 170.023,100.892 168.576,100.096 168.321 C 99.549 168.146,98.915 167.842,98.687 167.646 C 97.821 166.902,96.222 166.845,95.301 167.526 C 93.290 169.013,81.286 169.014,78.399 167.528 C 76.586 166.594,76.251 166.565,74.107 167.146 M298.647 166.967 C 292.795 167.824,291.182 170.450,294.363 173.943 C 295.239 174.905,295.243 176.766,294.375 179.550 C 293.694 181.732,293.461 195.135,294.069 197.117 C 295.646 202.262,295.634 202.668,293.849 204.588 C 292.230 206.331,292.209 206.475,293.293 208.476 C 294.072 209.913,294.202 210.019,295.575 210.326 C 296.376 210.506,297.388 210.837,297.824 211.063 C 303.164 213.833,328.801 212.593,333.041 209.360 C 334.124 208.533,334.242 206.404,333.237 205.808 C 332.978 205.655,332.192 205.155,331.490 204.699 C 330.727 204.203,329.491 203.735,328.411 203.532 C 327.419 203.347,326.196 203.112,325.694 203.010 C 324.950 202.860,324.645 202.954,324.036 203.521 C 321.480 205.904,314.256 205.702,311.767 203.178 C 310.737 202.134,310.331 201.893,309.776 202.000 C 308.866 202.173,308.769 201.721,308.851 197.708 C 308.926 194.047,308.349 194.465,313.891 194.056 C 318.382 193.725,320.832 193.379,321.300 193.009 C 321.482 192.865,322.285 192.534,323.084 192.274 C 325.815 191.383,326.830 188.256,324.810 186.955 C 324.278 186.612,323.656 186.160,323.428 185.949 C 322.734 185.309,321.485 185.132,320.966 185.601 C 318.291 188.022,306.411 187.175,308.176 184.689 C 309.402 182.964,309.428 182.777,308.777 180.314 C 308.019 177.445,308.740 176.214,311.115 176.323 C 311.577 176.344,312.786 176.228,313.800 176.065 C 315.114 175.854,315.804 175.855,316.200 176.067 C 316.611 176.287,317.964 176.214,321.405 175.787 C 323.962 175.469,326.691 175.144,327.470 175.065 C 332.317 174.570,335.598 170.821,332.764 169.015 C 332.266 168.698,331.486 168.200,331.030 167.910 C 329.698 167.061,324.257 166.316,324.257 166.982 C 324.257 168.923,305.069 169.255,302.280 167.362 C 301.242 166.658,300.963 166.628,298.647 166.967 M275.986 167.769 C 275.396 168.195,274.665 168.616,274.361 168.704 C 274.057 168.792,273.248 169.071,272.564 169.324 C 269.741 170.367,263.482 169.560,259.409 167.627 C 258.503 167.197,258.451 167.206,257.621 167.905 C 257.150 168.301,256.526 168.625,256.233 168.625 C 255.941 168.625,255.701 168.736,255.701 168.872 C 255.701 169.008,255.146 169.707,254.468 170.425 C 253.790 171.143,253.087 172.183,252.907 172.735 C 252.727 173.287,252.239 174.361,251.822 175.121 C 251.258 176.151,251.023 177.051,250.898 178.654 C 250.807 179.836,250.468 182.324,250.146 184.182 C 249.489 187.978,249.528 189.520,250.429 195.301 C 250.738 197.277,250.993 199.343,250.996 199.892 C 251.003 200.966,252.640 204.799,253.340 205.381 C 253.575 205.575,253.766 205.985,253.766 206.290 C 253.766 206.758,255.177 208.323,256.807 209.665 C 258.626 211.162,264.106 212.632,267.865 212.632 C 278.959 212.630,285.487 207.388,284.882 198.968 C 284.541 194.229,282.559 192.390,278.828 193.351 C 277.180 193.776,276.705 193.796,275.313 193.501 C 272.472 192.898,271.950 193.353,271.451 196.870 C 270.671 202.369,268.989 203.572,265.719 200.968 C 263.944 199.555,264.009 199.784,263.711 193.927 C 263.072 181.370,263.381 178.023,265.183 178.023 C 265.394 178.023,265.777 177.791,266.034 177.508 C 266.685 176.789,269.377 176.482,270.215 177.031 C 270.938 177.505,271.458 179.305,271.458 181.334 C 271.458 185.171,272.473 185.675,279.916 185.535 C 282.396 185.488,282.445 185.474,283.440 184.507 C 286.866 181.179,287.168 175.413,284.112 171.666 C 282.911 170.192,281.305 168.629,280.990 168.627 C 280.835 168.626,280.276 168.333,279.746 167.977 C 278.178 166.922,277.230 166.870,275.986 167.769 M121.519 167.934 C 121.077 168.314,120.622 168.625,120.508 168.625 C 119.851 168.625,116.705 172.282,116.531 173.249 C 116.428 173.822,116.099 174.770,115.799 175.354 C 115.500 175.938,115.185 176.995,115.100 177.703 C 115.014 178.412,114.693 180.354,114.386 182.020 C 113.707 185.702,113.804 194.349,114.556 197.236 C 114.793 198.148,114.990 199.330,114.993 199.862 C 114.996 200.394,115.245 201.234,115.547 201.728 C 115.848 202.222,116.238 203.217,116.415 203.939 C 116.736 205.258,117.686 206.643,119.543 208.500 C 125.647 214.603,142.660 213.688,146.259 207.064 C 146.552 206.524,146.909 205.895,147.052 205.667 C 147.827 204.430,149.275 200.632,149.279 199.827 C 149.282 199.314,149.475 198.023,149.709 196.959 C 150.312 194.207,150.536 187.906,150.132 184.985 C 149.352 179.326,148.897 177.035,148.276 175.631 C 147.913 174.810,147.616 173.995,147.616 173.820 C 147.616 172.579,144.416 169.130,142.410 168.208 L 141.126 167.618 139.464 168.220 C 138.550 168.550,137.429 168.972,136.973 169.157 C 133.804 170.444,126.689 169.635,123.645 167.643 C 122.798 167.089,122.445 167.137,121.519 167.934 M213.545 167.604 C 213.241 167.785,212.930 168.007,212.854 168.096 C 211.599 169.569,208.909 169.987,206.994 169.007 C 204.255 167.606,202.441 169.539,201.776 174.568 C 201.595 175.936,201.278 177.616,201.072 178.300 C 200.504 180.183,200.527 198.572,201.099 199.940 C 201.323 200.476,201.684 202.272,201.901 203.930 C 202.211 206.301,202.449 207.171,203.014 208.003 C 203.409 208.585,203.732 209.178,203.732 209.321 C 203.732 209.859,206.010 211.741,206.993 212.014 C 213.131 213.719,216.678 207.935,216.682 196.220 C 216.683 193.266,217.437 192.382,218.233 194.402 C 218.488 195.048,218.992 196.012,219.352 196.545 C 219.712 197.077,220.096 197.885,220.204 198.341 C 220.313 198.798,220.694 199.522,221.051 199.952 C 221.408 200.382,221.774 201.029,221.865 201.389 C 221.955 201.749,222.317 202.233,222.670 202.464 C 223.022 202.695,223.393 203.257,223.493 203.713 C 223.593 204.168,223.975 204.826,224.341 205.173 C 224.708 205.521,225.010 206.076,225.013 206.408 C 225.016 206.818,225.214 207.039,225.632 207.099 C 225.971 207.148,226.381 207.456,226.544 207.784 C 228.192 211.104,235.403 213.331,238.209 211.387 C 241.993 208.765,244.331 194.794,243.009 182.710 C 242.835 181.121,242.570 178.631,242.420 177.178 C 241.958 172.709,239.813 167.704,238.616 168.304 C 235.440 169.897,234.854 169.965,232.896 168.968 C 232.440 168.736,231.841 168.433,231.565 168.296 C 230.761 167.894,229.974 168.325,229.527 169.412 C 229.298 169.967,228.890 170.670,228.619 170.974 C 228.309 171.323,228.074 172.160,227.982 173.239 C 227.897 174.241,227.539 175.580,227.118 176.470 C 226.723 177.306,226.399 178.432,226.399 178.974 C 226.399 180.260,225.300 180.394,224.558 179.198 C 224.298 178.780,223.518 177.593,222.824 176.560 C 222.130 175.528,221.363 174.321,221.119 173.878 C 220.214 172.232,216.676 168.675,215.555 168.285 C 215.134 168.138,214.789 167.843,214.789 167.630 C 214.789 167.165,214.300 167.155,213.545 167.604 M168.361 168.194 C 168.165 168.431,167.828 168.625,167.614 168.625 C 167.399 168.625,166.920 168.824,166.549 169.067 C 165.740 169.596,163.835 169.479,162.026 168.789 C 160.674 168.273,159.505 168.680,159.500 169.668 C 159.498 169.930,159.173 170.829,158.777 171.666 C 157.051 175.312,156.820 198.252,158.485 200.792 C 158.742 201.184,159.088 202.161,159.255 202.964 C 159.749 205.349,163.320 210.090,164.621 210.090 C 164.804 210.090,165.377 210.377,165.893 210.727 C 168.396 212.426,177.818 213.115,182.170 211.919 C 191.794 209.273,194.777 200.882,193.386 180.373 C 193.148 176.865,192.884 174.792,192.591 174.131 C 192.350 173.586,192.067 172.489,191.961 171.692 C 191.557 168.647,190.012 167.720,187.699 169.136 C 186.432 169.911,185.339 169.885,183.482 169.035 C 181.231 168.004,180.719 168.468,179.814 172.357 C 179.280 174.654,179.169 199.179,179.689 200.151 C 180.577 201.810,176.655 202.965,174.231 201.759 C 171.820 200.559,171.773 200.204,171.651 182.308 C 171.591 173.559,169.907 166.332,168.361 168.194 M91.441 177.563 C 92.614 178.736,92.542 181.399,91.295 182.951 C 90.588 183.831,90.434 184.235,90.561 184.869 C 90.966 186.894,86.509 187.555,83.499 185.917 L 82.824 185.549 83.983 184.402 C 85.266 183.131,85.290 183.001,84.842 179.779 C 84.432 176.832,84.768 176.529,88.261 176.696 C 90.457 176.801,90.763 176.885,91.441 177.563 M134.394 177.375 C 134.868 177.804,134.900 178.537,134.900 189.145 L 134.900 200.457 134.092 201.265 C 132.807 202.550,130.911 202.296,129.228 200.613 C 127.841 199.226,127.713 198.160,127.713 188.005 L 127.713 178.881 128.684 178.140 C 130.279 176.923,133.429 176.501,134.394 177.375 M226.952 180.942 C 226.952 181.344,226.833 181.576,226.676 181.479 C 226.524 181.385,226.399 181.067,226.399 180.772 C 226.399 180.476,226.524 180.235,226.676 180.235 C 226.828 180.235,226.952 180.553,226.952 180.942 M90.440 194.851 C 95.294 196.952,91.911 202.713,86.428 201.685 C 85.198 201.454,85.083 201.148,84.889 197.591 C 84.704 194.199,84.507 194.438,87.538 194.371 C 88.666 194.346,89.647 194.508,90.440 194.851 " stroke="none" fill="#1e0ed5" fill-rule="evenodd"></path><path id="path1" d="M0.000 138.217 L 0.000 276.434 200.000 276.434 L 400.000 276.434 400.000 138.217 L 400.000 0.000 200.000 0.000 L 0.000 0.000 0.000 138.217 M205.425 68.719 C 206.346 69.054,207.214 69.120,209.067 68.997 C 210.791 68.883,211.757 68.944,212.384 69.205 C 212.871 69.408,213.949 69.737,214.780 69.936 C 216.906 70.445,218.547 71.221,219.722 72.273 C 220.278 72.770,221.081 73.357,221.507 73.577 C 224.201 74.967,228.791 81.692,229.496 85.280 C 229.956 87.628,229.880 93.657,229.351 96.614 C 226.232 114.066,207.705 121.779,194.574 111.092 C 190.944 108.137,187.245 103.425,186.079 100.268 C 185.754 99.388,185.309 98.393,185.089 98.056 C 182.948 94.770,182.940 84.865,185.074 80.719 C 185.270 80.339,185.817 79.202,186.290 78.194 C 189.384 71.589,199.517 66.572,205.425 68.719 M178.723 70.614 C 183.397 72.568,184.741 78.815,181.135 81.829 C 179.633 83.083,176.687 84.287,174.421 84.572 C 168.128 85.362,167.002 87.476,168.963 94.817 C 169.268 95.957,169.676 97.636,169.870 98.549 C 171.023 103.967,171.954 107.800,172.337 108.702 C 175.383 115.887,173.231 119.652,166.059 119.684 C 161.929 119.702,159.644 118.233,158.445 114.789 C 157.148 111.062,156.769 110.052,156.382 109.298 C 156.156 108.859,155.755 107.505,155.490 106.289 C 155.225 105.073,154.910 103.953,154.791 103.801 C 154.671 103.649,154.306 102.467,153.979 101.175 C 153.652 99.883,153.216 98.322,153.011 97.707 C 152.805 97.093,152.499 95.600,152.331 94.391 C 151.854 90.961,150.194 90.453,146.606 92.639 C 143.379 94.606,138.834 95.316,137.244 94.103 C 135.754 92.966,133.743 88.767,133.056 85.361 C 132.643 83.307,138.598 79.060,141.890 79.060 C 142.079 79.060,142.667 78.828,143.197 78.543 C 144.832 77.667,147.664 76.624,149.622 76.177 C 150.650 75.942,152.081 75.454,152.801 75.093 C 154.129 74.428,158.608 73.176,160.885 72.834 C 161.569 72.732,162.964 72.420,163.984 72.142 C 165.005 71.865,166.787 71.494,167.944 71.318 C 169.101 71.143,170.443 70.828,170.926 70.618 C 172.151 70.085,177.450 70.083,178.723 70.614 M245.612 73.980 C 250.723 75.241,251.741 76.939,251.969 84.588 C 252.033 86.726,252.156 88.590,252.243 88.730 C 252.453 89.070,255.132 86.434,256.208 84.827 C 258.611 81.241,260.446 79.895,262.940 79.891 C 264.929 79.888,270.223 80.953,271.735 81.660 C 272.571 82.052,273.445 82.373,273.677 82.375 C 274.062 82.377,274.609 82.799,276.758 84.753 C 278.221 86.083,278.465 87.369,278.196 92.334 C 277.844 98.806,278.017 98.811,284.466 92.519 C 287.580 89.480,289.739 88.841,291.694 90.379 C 292.050 90.659,293.832 91.657,295.653 92.597 C 303.624 96.710,304.953 99.393,300.853 103.099 C 298.929 104.837,282.091 121.092,280.117 123.116 C 272.707 130.714,271.643 131.187,266.928 128.980 C 265.764 128.435,264.597 127.984,264.334 127.978 C 263.173 127.950,261.378 126.705,260.325 125.198 L 259.244 123.651 259.144 117.524 C 259.036 110.958,258.832 109.790,258.077 111.416 C 257.834 111.941,257.293 112.884,256.875 113.513 C 256.458 114.141,255.673 115.322,255.131 116.139 C 254.589 116.955,253.936 118.027,253.680 118.521 C 253.423 119.015,253.028 119.773,252.801 120.204 C 251.377 122.911,246.110 122.928,242.156 120.237 C 241.776 119.978,240.791 119.427,239.968 119.012 C 238.100 118.071,235.638 115.775,235.261 114.622 C 233.356 108.792,232.871 93.199,234.091 77.015 C 234.402 72.884,234.396 72.888,239.234 73.123 C 241.615 73.239,243.790 73.531,245.612 73.980 M204.838 81.447 C 201.387 82.850,199.729 89.541,201.139 96.377 C 202.333 102.164,207.151 103.371,210.907 98.825 C 214.305 94.712,214.297 85.053,210.893 82.357 C 209.789 81.482,206.111 80.930,204.838 81.447 M100.484 97.581 C 102.309 98.275,105.874 103.143,105.874 104.941 C 105.874 106.926,102.308 111.398,99.165 113.354 C 97.426 114.437,95.131 116.686,94.948 117.486 C 94.778 118.234,95.346 119.209,99.507 125.321 C 99.730 125.648,100.816 127.035,101.922 128.404 C 103.027 129.772,104.338 131.427,104.834 132.082 C 105.330 132.737,106.422 134.043,107.261 134.984 C 113.356 141.825,113.486 144.585,107.856 147.651 C 106.690 148.285,105.548 148.965,105.318 149.161 C 104.699 149.689,102.487 150.215,101.710 150.020 C 100.293 149.665,94.482 144.260,91.993 140.981 C 91.358 140.145,90.705 139.337,90.541 139.185 C 90.284 138.946,87.175 134.893,85.581 132.718 C 84.653 131.452,81.715 128.542,81.364 128.542 C 81.079 128.542,78.557 130.767,77.125 132.282 C 70.829 138.942,69.449 139.352,65.815 135.642 C 59.548 129.245,59.650 128.813,69.788 118.767 C 75.654 112.955,79.856 109.229,84.254 105.941 C 85.731 104.838,87.374 103.588,87.906 103.164 C 93.965 98.338,97.890 96.595,100.484 97.581 M307.977 101.739 C 310.396 102.346,316.073 104.793,317.455 105.824 C 317.927 106.177,318.717 106.637,319.209 106.846 C 322.916 108.419,324.128 111.445,323.205 116.818 C 321.392 127.372,321.490 127.432,328.222 119.882 C 330.617 117.196,331.171 117.253,334.900 120.570 C 335.660 121.247,336.717 122.094,337.249 122.454 C 342.789 126.201,343.913 130.597,340.326 134.485 C 339.905 134.941,339.368 135.625,339.133 136.006 C 338.656 136.777,331.950 144.174,330.362 145.681 C 329.801 146.213,328.105 147.768,326.594 149.136 C 325.083 150.504,322.905 152.495,321.754 153.559 C 315.122 159.692,314.106 160.235,311.378 159.095 C 309.457 158.293,304.011 153.100,303.516 151.598 C 303.102 150.345,303.595 144.550,304.360 141.672 C 304.840 139.869,304.950 138.652,304.956 135.081 C 304.965 130.409,304.731 129.466,303.963 131.070 C 303.719 131.580,302.992 132.710,302.347 133.582 C 301.702 134.454,300.739 135.881,300.207 136.755 C 297.742 140.802,295.103 143.193,293.103 143.193 C 289.752 143.193,283.898 137.715,283.898 134.579 C 283.898 133.356,287.068 127.368,290.202 122.670 C 291.220 121.145,292.433 119.180,292.898 118.303 C 293.363 117.427,294.146 116.169,294.638 115.508 C 295.634 114.169,300.853 106.375,301.748 104.889 C 302.738 103.245,305.561 101.104,306.427 101.339 C 306.731 101.421,307.429 101.601,307.977 101.739 M138.250 109.214 C 142.839 112.330,141.976 115.177,135.591 117.992 C 131.864 119.635,131.249 119.930,129.095 121.110 C 122.819 124.547,119.705 124.081,117.112 119.316 C 115.623 116.578,116.674 115.244,122.715 112.212 C 130.642 108.233,135.442 107.307,138.250 109.214 M92.882 163.398 C 93.414 163.534,94.433 163.647,95.146 163.647 C 95.859 163.648,96.510 163.758,96.593 163.892 C 96.676 164.025,97.476 164.188,98.372 164.253 C 99.378 164.325,100.295 164.576,100.769 164.908 C 101.191 165.204,101.981 165.712,102.524 166.036 C 105.224 167.651,109.314 171.864,110.336 174.084 C 111.232 176.030,111.479 176.170,111.922 174.983 C 112.093 174.527,112.374 173.775,112.547 173.313 C 112.720 172.851,113.062 172.320,113.307 172.134 C 113.552 171.948,113.877 171.598,114.029 171.357 C 115.629 168.822,117.502 166.664,119.468 165.092 C 121.251 163.666,132.588 162.638,136.973 163.505 C 138.189 163.745,139.915 164.063,140.807 164.211 C 141.699 164.359,142.756 164.661,143.156 164.884 C 143.557 165.106,144.291 165.482,144.789 165.719 C 145.287 165.956,146.154 166.676,146.716 167.318 C 147.278 167.961,148.249 168.992,148.872 169.610 C 150.056 170.783,151.762 173.102,151.762 173.538 C 151.762 173.677,152.000 174.006,152.290 174.269 C 152.580 174.531,152.979 175.142,153.177 175.625 C 153.509 176.439,154.250 177.439,154.250 177.074 C 154.250 172.138,157.379 165.564,160.442 164.065 C 164.943 161.863,170.794 163.643,172.703 167.795 C 173.088 168.632,173.568 169.508,173.770 169.743 C 174.312 170.374,175.038 174.120,174.865 175.397 C 174.765 176.142,174.849 176.677,175.123 177.036 C 175.715 177.811,175.823 177.528,175.949 174.887 C 176.122 171.267,177.069 168.558,178.889 166.473 C 179.325 165.973,179.682 165.406,179.682 165.213 C 179.682 163.811,186.433 162.605,188.550 163.628 C 189.203 163.944,189.906 164.202,190.111 164.202 C 192.437 164.202,195.861 168.829,196.760 173.186 L 196.988 174.292 197.695 173.533 C 198.553 172.612,200.008 169.717,200.579 167.795 C 200.865 166.831,201.200 166.296,201.643 166.094 C 201.998 165.932,202.424 165.502,202.590 165.139 C 202.755 164.776,203.125 164.478,203.411 164.478 C 203.697 164.478,204.630 164.105,205.485 163.649 C 207.513 162.567,208.912 162.572,213.075 163.680 C 217.244 164.790,220.350 166.824,221.000 168.871 C 221.103 169.197,221.707 169.725,222.342 170.044 C 222.977 170.363,223.707 170.808,223.963 171.034 C 224.641 171.629,225.878 170.183,226.557 167.999 C 226.663 167.659,227.152 166.932,227.644 166.383 C 228.136 165.835,228.586 165.260,228.644 165.106 C 229.221 163.572,235.858 162.516,237.972 163.622 C 238.525 163.911,239.386 164.301,239.885 164.489 C 242.057 165.305,244.592 169.133,245.505 172.975 C 246.630 177.714,248.583 177.444,249.494 172.424 C 249.612 171.774,249.981 171.135,250.480 170.714 C 250.919 170.345,251.283 169.879,251.289 169.679 C 251.340 167.936,256.413 164.383,259.295 164.073 C 260.283 163.966,261.794 163.703,262.652 163.488 C 265.904 162.672,274.830 163.126,279.337 164.337 C 281.370 164.884,284.579 166.991,287.650 169.797 C 288.606 170.671,289.162 170.395,289.524 168.868 C 289.618 168.469,290.164 167.792,290.736 167.363 C 291.308 166.933,291.876 166.420,291.997 166.221 C 292.119 166.023,292.361 165.860,292.535 165.860 C 292.709 165.860,293.178 165.548,293.577 165.166 C 294.328 164.446,295.551 164.224,303.386 163.382 C 313.607 162.283,331.025 163.431,333.072 165.338 C 333.380 165.625,333.793 165.861,333.990 165.862 C 334.591 165.865,337.527 168.649,338.088 169.749 C 339.397 172.315,338.886 174.284,336.365 176.390 C 334.509 177.939,333.621 178.119,327.574 178.171 C 324.610 178.196,320.100 178.315,317.554 178.435 L 312.923 178.654 312.923 179.702 C 312.923 180.899,313.585 181.321,314.607 180.775 C 315.060 180.532,315.253 180.532,315.403 180.774 C 315.622 181.129,318.126 181.705,321.420 182.159 C 323.809 182.489,327.439 184.074,327.702 184.902 C 327.787 185.169,328.240 185.671,328.708 186.017 C 330.433 187.293,330.958 191.150,329.707 193.359 C 328.490 195.508,327.059 195.935,319.972 196.265 C 316.628 196.421,313.606 196.626,313.258 196.720 C 312.491 196.928,312.598 197.478,313.429 197.600 C 313.882 197.667,314.029 197.880,314.029 198.468 C 314.029 199.433,314.290 199.482,319.834 199.570 C 322.039 199.605,324.589 199.799,325.501 200.001 C 326.413 200.203,327.844 200.450,328.680 200.549 C 337.554 201.599,341.954 209.560,335.772 213.380 C 329.664 217.156,308.684 218.102,297.693 215.098 C 296.567 214.790,295.288 214.464,294.851 214.373 C 293.294 214.050,289.426 209.696,289.426 208.265 C 289.426 207.786,289.237 207.236,289.005 207.044 C 288.500 206.624,288.560 206.566,287.674 208.330 C 282.419 218.795,258.673 219.903,252.350 209.979 C 251.759 209.052,250.988 207.950,250.636 207.531 C 250.284 207.112,249.772 206.059,249.498 205.190 C 249.225 204.322,248.805 203.296,248.565 202.911 C 248.325 202.526,248.107 202.176,248.081 202.132 C 248.054 202.088,247.706 202.201,247.307 202.383 C 246.497 202.752,246.391 203.045,245.313 207.878 C 243.472 216.131,237.850 218.668,229.786 214.885 C 227.347 213.740,222.870 209.273,221.992 207.108 C 221.544 206.000,220.972 205.667,219.519 205.667 C 218.265 205.667,218.382 205.389,217.828 209.667 C 217.405 212.927,217.092 213.834,216.097 214.674 C 212.883 217.391,207.883 217.401,204.398 214.698 C 203.140 213.723,200.968 211.311,200.968 210.891 C 200.968 210.742,200.594 209.821,200.138 208.846 C 199.682 207.870,199.309 206.958,199.309 206.819 C 199.309 206.295,197.967 203.557,197.535 203.198 C 196.947 202.710,196.905 202.768,196.101 205.146 C 195.724 206.258,195.253 207.359,195.053 207.593 C 194.853 207.826,194.339 208.674,193.910 209.477 C 191.375 214.221,185.420 216.724,176.667 216.724 C 166.031 216.724,161.083 213.924,156.876 205.523 C 154.427 200.633,154.146 200.453,153.392 203.309 C 153.230 203.922,152.752 204.983,152.330 205.667 C 151.908 206.351,151.149 207.657,150.643 208.569 C 147.676 213.920,142.742 216.348,133.794 216.863 C 125.817 217.323,117.309 213.612,115.374 208.831 C 115.050 208.029,114.475 206.958,114.096 206.451 C 113.320 205.411,111.679 202.046,111.679 201.495 C 111.679 200.800,111.189 201.654,110.553 203.455 C 110.205 204.444,109.662 205.584,109.348 205.990 C 109.034 206.396,108.352 207.484,107.833 208.407 C 105.724 212.157,101.712 214.675,95.243 216.308 C 88.937 217.900,72.799 215.958,69.938 213.263 C 69.558 212.904,68.774 212.212,68.196 211.724 C 66.326 210.145,65.753 207.211,66.733 204.225 C 67.373 202.275,67.417 199.691,66.858 196.959 C 66.005 192.789,66.193 182.410,67.215 177.246 C 67.495 175.834,67.493 175.392,67.206 174.932 C 65.249 171.799,66.184 166.839,68.892 165.979 C 69.172 165.891,70.050 165.390,70.844 164.866 C 71.841 164.208,72.587 163.921,73.255 163.938 C 73.787 163.952,75.155 163.819,76.295 163.644 C 80.872 162.939,90.535 162.796,92.882 163.398 M291.140 176.420 C 290.680 176.880,290.725 178.630,291.222 179.581 C 291.620 180.346,291.635 180.301,291.636 178.231 C 291.638 175.926,291.637 175.923,291.140 176.420 M175.340 178.853 C 175.039 179.606,175.180 181.536,175.552 181.766 C 175.932 182.001,176.179 179.989,175.886 179.041 L 175.615 178.162 175.340 178.853 M266.879 182.746 C 266.622 184.498,266.711 192.503,267.020 195.301 C 267.137 196.365,267.251 196.913,267.272 196.519 C 267.387 194.421,269.656 190.464,270.745 190.463 C 270.885 190.463,271.791 190.078,272.758 189.607 C 274.078 188.963,274.606 188.826,274.881 189.054 C 275.235 189.347,276.366 189.404,277.302 189.174 C 277.551 189.113,277.814 188.756,277.886 188.381 C 278.015 187.704,278.001 187.699,275.894 187.699 C 270.185 187.699,268.186 186.645,267.715 183.389 C 267.410 181.274,267.128 181.057,266.879 182.746 M175.449 183.931 C 175.175 184.647,175.216 186.257,175.513 186.441 C 175.888 186.672,176.125 185.199,175.865 184.254 C 175.679 183.579,175.606 183.522,175.449 183.931 M290.025 184.877 C 289.669 184.933,289.047 185.342,288.642 185.786 C 287.794 186.714,285.114 187.394,281.195 187.674 L 278.908 187.837 279.345 188.459 C 279.705 188.971,280.042 189.081,281.248 189.081 C 282.502 189.081,282.907 189.226,284.065 190.090 C 287.486 192.642,288.699 194.681,289.191 198.699 C 289.469 200.969,290.327 202.974,290.947 202.799 C 291.931 202.520,292.115 198.822,291.359 194.512 C 291.222 193.730,291.052 191.243,290.981 188.987 C 290.910 186.731,290.811 184.860,290.761 184.830 C 290.711 184.799,290.380 184.820,290.025 184.877 M108.740 187.630 C 106.998 190.204,107.243 192.238,109.467 193.642 C 110.045 194.006,110.583 194.467,110.662 194.665 C 110.742 194.862,110.816 193.385,110.828 191.381 C 110.855 186.939,110.112 185.604,108.740 187.630 " stroke="none" fill="#fbeb07" fill-rule="evenodd"></path><path id="path2" d="M199.839 68.841 C 194.990 69.408,188.602 74.386,186.182 79.485 C 177.659 97.445,195.409 119.627,213.407 113.506 C 220.621 111.053,224.687 106.410,227.717 97.167 C 230.202 89.586,227.123 78.095,221.593 74.308 C 221.120 73.984,220.422 73.437,220.041 73.093 C 217.974 71.222,212.161 69.148,210.006 69.512 C 209.368 69.620,208.438 69.774,207.941 69.854 C 207.367 69.946,206.556 69.798,205.729 69.450 C 204.098 68.764,202.189 68.567,199.839 68.841 M170.698 71.159 C 169.330 71.511,167.091 72.021,165.722 72.293 C 160.522 73.327,158.794 73.720,158.258 73.991 C 157.954 74.145,156.959 74.430,156.047 74.625 C 155.135 74.820,153.953 75.196,153.421 75.462 C 152.889 75.727,151.822 76.093,151.049 76.275 C 150.277 76.456,148.473 77.047,147.041 77.588 C 145.609 78.128,143.566 78.868,142.502 79.231 C 141.437 79.595,140.318 80.007,140.014 80.148 C 139.710 80.289,138.381 80.899,137.062 81.502 C 134.960 82.463,134.590 82.742,134.078 83.744 L 133.495 84.888 134.205 87.556 C 135.829 93.659,139.480 94.640,146.786 90.938 C 149.193 89.719,151.765 89.570,152.179 90.626 C 152.277 90.879,152.529 92.018,152.738 93.158 C 153.540 97.536,155.834 106.640,156.813 109.330 C 160.041 118.201,161.504 119.301,168.210 117.900 C 172.762 116.948,172.878 115.648,169.577 102.625 C 168.758 99.393,167.946 95.910,167.773 94.885 C 167.599 93.859,167.224 92.025,166.937 90.809 C 165.874 86.288,166.568 84.718,169.936 84.025 C 179.119 82.137,181.505 80.622,181.393 76.753 C 181.236 71.328,177.548 69.399,170.698 71.159 M235.863 73.542 C 235.082 73.855,234.693 74.844,234.690 76.521 C 234.689 77.233,234.573 78.563,234.431 79.475 C 234.049 81.945,233.833 101.499,234.162 103.801 C 234.315 104.865,234.617 107.572,234.835 109.817 C 235.052 112.061,235.353 114.128,235.503 114.409 C 236.768 116.772,244.119 120.525,247.483 120.525 C 250.293 120.525,250.912 119.913,255.374 112.720 C 258.595 107.528,260.321 107.126,260.017 111.639 C 259.171 124.217,259.274 124.543,264.842 126.909 C 271.027 129.537,271.722 129.339,277.714 123.239 C 280.279 120.629,283.248 117.678,284.312 116.682 C 285.377 115.686,287.865 113.264,289.841 111.300 C 291.818 109.336,295.014 106.305,296.944 104.564 C 301.711 100.266,301.895 99.919,300.726 97.432 C 300.002 95.891,298.547 94.620,295.966 93.274 C 294.878 92.706,293.303 91.804,292.467 91.270 C 289.121 89.133,287.652 89.659,282.757 94.743 C 281.328 96.228,279.447 98.047,278.577 98.786 L 276.996 100.129 276.730 99.430 C 276.572 99.014,276.531 96.557,276.630 93.350 C 276.898 84.607,276.202 83.346,270.214 81.725 C 262.047 79.513,259.978 80.055,256.655 85.280 C 256.365 85.736,255.555 86.857,254.854 87.771 C 254.153 88.685,253.440 89.694,253.269 90.013 C 253.099 90.332,252.518 91.034,251.979 91.573 C 250.705 92.847,250.731 92.971,250.642 85.142 C 250.567 78.485,250.570 78.502,248.997 76.495 C 247.941 75.147,247.101 74.731,244.456 74.246 C 239.310 73.301,236.945 73.107,235.863 73.542 M208.293 80.264 C 212.690 81.436,213.769 83.535,213.741 90.864 C 213.689 104.767,200.715 106.783,199.306 93.107 C 198.369 84.005,202.134 78.623,208.293 80.264 M97.359 97.887 C 93.399 98.630,80.757 108.565,69.633 119.676 C 60.704 128.594,60.520 129.046,64.204 133.039 C 67.640 136.765,70.128 137.258,72.493 134.682 C 75.700 131.190,79.398 127.991,80.878 127.428 C 81.825 127.068,82.761 127.889,84.773 130.844 C 86.950 134.041,91.866 140.026,95.067 143.377 C 99.687 148.214,102.391 149.127,106.012 147.071 C 111.463 143.977,111.734 141.793,107.338 136.388 C 105.402 134.009,103.549 131.693,100.207 127.484 C 99.599 126.717,98.817 125.678,98.468 125.174 C 98.120 124.670,97.138 123.324,96.286 122.184 C 92.973 117.750,92.968 116.076,96.260 113.476 C 103.531 107.734,104.762 106.120,104.027 103.287 C 103.083 99.647,100.241 97.346,97.359 97.887 M305.088 102.507 C 304.264 103.070,302.142 105.499,302.142 105.879 C 302.142 106.001,301.603 106.764,300.943 107.577 C 300.283 108.389,299.413 109.551,299.009 110.159 C 298.605 110.767,297.994 111.658,297.651 112.139 C 295.443 115.240,293.635 117.924,293.158 118.808 C 292.539 119.958,290.010 123.887,289.207 124.948 C 287.503 127.199,284.451 133.376,284.451 134.572 C 284.451 137.408,289.475 141.597,292.857 141.579 C 294.314 141.572,295.905 140.303,297.389 137.967 C 297.640 137.572,298.407 136.441,299.095 135.453 C 299.783 134.464,300.470 133.455,300.622 133.210 C 301.640 131.570,304.155 128.295,304.498 128.163 C 305.550 127.760,306.351 128.484,306.220 129.720 C 306.152 130.364,305.884 132.944,305.626 135.453 C 305.367 137.961,304.775 141.923,304.311 144.255 C 303.025 150.723,303.453 152.199,307.509 155.268 C 311.829 158.537,313.787 158.484,317.559 154.999 C 318.582 154.054,320.228 152.605,321.216 151.781 C 325.255 148.410,335.574 138.034,337.162 135.746 C 337.420 135.375,337.827 134.875,338.068 134.634 C 338.729 133.973,341.027 130.422,341.236 129.737 C 341.886 127.612,336.400 121.501,331.503 118.896 C 330.433 118.327,328.531 119.814,325.916 123.265 C 325.536 123.766,324.851 124.668,324.395 125.269 C 323.939 125.869,323.041 126.917,322.399 127.598 L 321.232 128.834 320.646 128.248 C 320.198 127.800,320.098 127.454,320.222 126.788 C 320.312 126.308,320.514 124.858,320.670 123.566 C 320.826 122.274,321.158 120.283,321.407 119.143 C 322.767 112.910,321.771 109.140,318.165 106.873 C 312.056 103.032,306.860 101.297,305.088 102.507 M133.241 108.621 C 132.709 108.728,131.900 109.008,131.444 109.241 C 130.988 109.475,130.242 109.755,129.786 109.862 C 128.943 110.060,121.836 113.124,121.078 113.616 C 120.850 113.764,120.228 114.124,119.696 114.417 C 116.825 115.994,116.436 117.365,118.183 119.756 C 119.923 122.139,122.655 122.727,125.363 121.302 C 126.123 120.902,127.616 120.139,128.680 119.606 C 129.744 119.073,131.113 118.380,131.721 118.064 C 132.329 117.749,134.047 116.971,135.539 116.335 C 139.558 114.622,140.164 112.836,137.727 109.883 C 136.511 108.408,135.585 108.148,133.241 108.621 " stroke="none" fill="#e22406" fill-rule="evenodd"></path><path id="path3" d="M198.065 68.678 C 193.267 70.250,188.029 74.483,186.290 78.194 C 185.817 79.202,185.270 80.339,185.074 80.719 C 182.940 84.865,182.948 94.770,185.089 98.056 C 185.309 98.393,185.754 99.388,186.079 100.268 C 187.245 103.425,190.944 108.137,194.574 111.092 C 202.469 117.517,213.400 117.564,221.210 111.206 C 228.974 104.885,232.377 90.124,228.079 81.410 C 226.910 79.039,222.953 74.323,221.507 73.577 C 221.081 73.357,220.278 72.770,219.722 72.273 C 218.547 71.221,216.906 70.445,214.780 69.936 C 213.949 69.737,212.871 69.408,212.384 69.205 C 211.757 68.944,210.791 68.883,209.067 68.997 C 207.214 69.120,206.346 69.054,205.425 68.719 C 203.940 68.179,199.661 68.156,198.065 68.678 M205.729 69.450 C 206.556 69.798,207.367 69.946,207.941 69.854 C 208.438 69.774,209.368 69.620,210.006 69.512 C 212.161 69.148,217.974 71.222,220.041 73.093 C 220.422 73.437,221.120 73.984,221.593 74.308 C 227.123 78.095,230.202 89.586,227.717 97.167 C 224.687 106.410,220.621 111.053,213.407 113.506 C 197.381 118.956,180.123 101.088,184.632 83.713 C 187.286 73.486,198.041 66.215,205.729 69.450 M170.926 70.618 C 170.443 70.828,169.101 71.143,167.944 71.318 C 166.787 71.494,165.005 71.865,163.984 72.142 C 162.964 72.420,161.569 72.732,160.885 72.834 C 158.608 73.176,154.129 74.428,152.801 75.093 C 152.081 75.454,150.650 75.942,149.622 76.177 C 147.664 76.624,144.832 77.667,143.197 78.543 C 142.667 78.828,142.079 79.060,141.890 79.060 C 138.598 79.060,132.643 83.307,133.056 85.361 C 133.743 88.767,135.754 92.966,137.244 94.103 C 138.834 95.316,143.379 94.606,146.606 92.639 C 150.194 90.453,151.854 90.961,152.331 94.391 C 152.499 95.600,152.805 97.093,153.011 97.707 C 153.216 98.322,153.652 99.883,153.979 101.175 C 154.306 102.467,154.671 103.649,154.791 103.801 C 154.910 103.953,155.225 105.073,155.490 106.289 C 155.755 107.505,156.156 108.859,156.382 109.298 C 156.769 110.052,157.148 111.062,158.445 114.789 C 159.644 118.233,161.929 119.702,166.059 119.684 C 173.231 119.652,175.383 115.887,172.337 108.702 C 171.954 107.800,171.023 103.967,169.870 98.549 C 169.676 97.636,169.268 95.957,168.963 94.817 C 167.002 87.476,168.128 85.362,174.421 84.572 C 181.123 83.730,184.882 78.827,182.567 73.947 C 181.107 70.871,174.613 69.014,170.926 70.618 M178.816 71.401 C 181.122 72.927,182.349 77.618,180.987 79.698 C 180.061 81.111,175.583 82.864,169.936 84.025 C 166.568 84.718,165.874 86.288,166.937 90.809 C 167.224 92.025,167.599 93.859,167.773 94.885 C 167.946 95.910,168.758 99.393,169.577 102.625 C 172.878 115.648,172.762 116.948,168.210 117.900 C 161.504 119.301,160.041 118.201,156.813 109.330 C 155.834 106.640,153.540 97.536,152.738 93.158 C 152.529 92.018,152.277 90.879,152.179 90.626 C 151.765 89.570,149.193 89.719,146.786 90.938 C 139.480 94.640,135.829 93.659,134.205 87.556 L 133.495 84.888 134.078 83.744 C 134.590 82.742,134.960 82.463,137.062 81.502 C 138.381 80.899,139.710 80.289,140.014 80.148 C 140.318 80.007,141.437 79.595,142.502 79.231 C 143.566 78.868,145.609 78.128,147.041 77.588 C 148.473 77.047,150.277 76.456,151.049 76.275 C 151.822 76.093,152.889 75.727,153.421 75.462 C 153.953 75.196,155.135 74.820,156.047 74.625 C 156.959 74.430,157.954 74.145,158.258 73.991 C 158.794 73.720,160.522 73.327,165.722 72.293 C 167.091 72.021,169.330 71.511,170.698 71.159 C 174.163 70.269,177.244 70.361,178.816 71.401 M234.950 73.491 C 234.393 73.943,234.291 74.359,234.091 77.015 C 232.871 93.199,233.356 108.792,235.261 114.622 C 235.638 115.775,238.100 118.071,239.968 119.012 C 240.791 119.427,241.776 119.978,242.156 120.237 C 246.110 122.928,251.377 122.911,252.801 120.204 C 253.028 119.773,253.423 119.015,253.680 118.521 C 253.936 118.027,254.589 116.955,255.131 116.139 C 255.673 115.322,256.458 114.141,256.875 113.513 C 257.293 112.884,257.834 111.941,258.077 111.416 C 258.832 109.790,259.036 110.958,259.144 117.524 L 259.244 123.651 260.325 125.198 C 261.378 126.705,263.173 127.950,264.334 127.978 C 264.597 127.984,265.764 128.435,266.928 128.980 C 271.643 131.187,272.707 130.714,280.117 123.116 C 282.091 121.092,298.929 104.837,300.853 103.099 C 304.953 99.393,303.624 96.710,295.653 92.597 C 293.832 91.657,292.050 90.659,291.694 90.379 C 289.739 88.841,287.580 89.480,284.466 92.519 C 278.017 98.811,277.844 98.806,278.196 92.334 C 278.465 87.369,278.221 86.083,276.758 84.753 C 274.609 82.799,274.062 82.377,273.677 82.375 C 273.445 82.373,272.571 82.052,271.735 81.660 C 270.223 80.953,264.929 79.888,262.940 79.891 C 260.446 79.895,258.611 81.241,256.208 84.827 C 255.132 86.434,252.453 89.070,252.243 88.730 C 252.156 88.590,252.033 86.726,251.969 84.588 C 251.709 75.879,249.008 73.151,240.787 73.290 L 238.701 73.326 240.359 73.572 C 246.740 74.520,247.702 74.843,248.972 76.463 C 250.574 78.506,250.567 78.470,250.642 85.142 C 250.731 92.971,250.705 92.847,251.979 91.573 C 252.518 91.034,253.099 90.332,253.269 90.013 C 253.440 89.694,254.153 88.685,254.854 87.771 C 255.555 86.857,256.365 85.736,256.655 85.280 C 259.978 80.055,262.047 79.513,270.214 81.725 C 276.202 83.346,276.898 84.607,276.630 93.350 C 276.531 96.557,276.572 99.014,276.730 99.430 L 276.996 100.129 278.577 98.786 C 279.447 98.047,281.328 96.228,282.757 94.743 C 287.652 89.659,289.121 89.133,292.467 91.270 C 293.303 91.804,294.878 92.706,295.966 93.274 C 298.547 94.620,300.002 95.891,300.726 97.432 C 301.895 99.919,301.711 100.266,296.944 104.564 C 295.014 106.305,291.818 109.336,289.841 111.300 C 287.865 113.264,285.377 115.686,284.312 116.682 C 283.248 117.678,280.279 120.629,277.714 123.239 C 271.722 129.339,271.027 129.537,264.842 126.909 C 259.274 124.543,259.171 124.217,260.017 111.639 C 260.321 107.126,258.595 107.528,255.374 112.720 C 250.912 119.913,250.293 120.525,247.483 120.525 C 244.119 120.525,236.768 116.772,235.503 114.409 C 235.353 114.128,235.052 112.061,234.835 109.817 C 234.617 107.572,234.314 104.860,234.161 103.790 C 233.828 101.471,234.015 83.141,234.408 79.475 C 234.555 78.106,234.727 76.383,234.791 75.645 C 234.938 73.952,235.365 73.532,237.216 73.263 L 238.701 73.048 237.142 73.013 C 235.998 72.988,235.415 73.115,234.950 73.491 M203.818 80.194 C 200.807 81.066,198.690 87.123,199.306 93.107 C 200.395 103.671,208.804 105.758,212.961 96.496 C 214.401 93.287,214.002 85.045,212.291 82.684 C 210.721 80.516,206.744 79.348,203.818 80.194 M210.893 82.357 C 214.297 85.053,214.305 94.712,210.907 98.825 C 207.151 103.371,202.333 102.164,201.139 96.377 C 199.729 89.541,201.387 82.850,204.838 81.447 C 206.111 80.930,209.789 81.482,210.893 82.357 M96.475 97.823 C 94.306 98.521,91.681 100.157,87.906 103.164 C 87.374 103.588,85.731 104.838,84.254 105.941 C 79.856 109.229,75.654 112.955,69.788 118.767 C 59.650 128.813,59.548 129.245,65.815 135.642 C 69.449 139.352,70.829 138.942,77.125 132.282 C 78.557 130.767,81.079 128.542,81.364 128.542 C 81.715 128.542,84.653 131.452,85.581 132.718 C 87.175 134.893,90.284 138.946,90.541 139.185 C 90.705 139.337,91.358 140.145,91.993 140.981 C 94.482 144.260,100.293 149.665,101.710 150.020 C 102.487 150.215,104.699 149.689,105.318 149.161 C 105.548 148.965,106.690 148.285,107.856 147.651 C 113.486 144.585,113.356 141.825,107.261 134.984 C 106.422 134.043,105.330 132.737,104.834 132.082 C 104.338 131.427,103.027 129.772,101.922 128.404 C 100.816 127.035,99.730 125.648,99.507 125.321 C 95.346 119.209,94.778 118.234,94.948 117.486 C 95.131 116.686,97.426 114.437,99.165 113.354 C 102.308 111.398,105.874 106.926,105.874 104.941 C 105.874 103.779,104.380 101.183,102.693 99.413 C 100.547 97.161,99.426 96.875,96.475 97.823 M101.248 98.921 C 106.296 103.733,105.442 106.225,96.260 113.476 C 92.968 116.076,92.973 117.750,96.286 122.184 C 97.138 123.324,98.120 124.670,98.468 125.174 C 98.817 125.678,99.599 126.717,100.207 127.484 C 103.549 131.693,105.402 134.009,107.338 136.388 C 111.734 141.793,111.463 143.977,106.012 147.071 C 102.391 149.127,99.687 148.214,95.067 143.377 C 91.866 140.026,86.950 134.041,84.773 130.844 C 82.761 127.889,81.825 127.068,80.878 127.428 C 79.398 127.991,75.700 131.190,72.493 134.682 C 70.128 137.258,67.640 136.765,64.204 133.039 C 60.520 129.046,60.704 128.594,69.633 119.676 C 76.302 113.015,80.633 109.156,86.067 105.036 C 96.027 97.482,98.636 96.431,101.248 98.921 M305.183 101.657 C 303.690 102.669,302.295 103.982,301.748 104.889 C 300.853 106.375,295.634 114.169,294.638 115.508 C 294.146 116.169,293.363 117.427,292.898 118.303 C 292.433 119.180,291.220 121.145,290.202 122.670 C 287.068 127.368,283.898 133.356,283.898 134.579 C 283.898 137.715,289.752 143.193,293.103 143.193 C 295.103 143.193,297.742 140.802,300.207 136.755 C 300.739 135.881,301.702 134.454,302.347 133.582 C 302.992 132.710,303.719 131.580,303.963 131.070 C 304.731 129.466,304.965 130.409,304.956 135.081 C 304.950 138.653,304.840 139.869,304.360 141.672 C 304.037 142.889,303.716 144.755,303.648 145.819 C 303.413 149.492,305.042 141.020,305.589 135.729 C 305.864 133.068,306.146 130.364,306.216 129.720 C 306.351 128.484,305.551 127.759,304.498 128.163 C 304.155 128.295,301.640 131.570,300.622 133.210 C 300.470 133.455,299.783 134.464,299.095 135.453 C 298.407 136.441,297.640 137.572,297.389 137.967 C 295.905 140.303,294.314 141.572,292.857 141.579 C 289.475 141.597,284.451 137.408,284.451 134.572 C 284.451 133.376,287.503 127.199,289.207 124.948 C 290.010 123.887,292.539 119.958,293.158 118.808 C 293.635 117.924,295.443 115.240,297.651 112.139 C 297.994 111.658,298.603 110.767,299.005 110.159 C 299.406 109.551,300.196 108.493,300.760 107.809 C 301.324 107.125,301.948 106.254,302.147 105.874 C 304.614 101.171,306.763 100.995,314.571 104.853 C 321.647 108.350,323.100 111.387,321.407 119.143 C 321.158 120.283,320.826 122.274,320.670 123.566 C 320.514 124.858,320.312 126.308,320.222 126.788 C 320.098 127.454,320.198 127.800,320.646 128.248 L 321.232 128.834 322.399 127.598 C 323.041 126.917,323.939 125.869,324.395 125.269 C 324.851 124.668,325.536 123.766,325.916 123.265 C 328.531 119.814,330.433 118.327,331.503 118.896 C 336.400 121.501,341.886 127.612,341.236 129.737 C 341.027 130.422,338.729 133.973,338.068 134.634 C 337.827 134.875,337.420 135.375,337.162 135.746 C 335.574 138.034,325.255 148.410,321.216 151.781 C 320.228 152.605,318.582 154.054,317.559 154.999 C 313.793 158.479,311.826 158.535,307.533 155.286 C 305.207 153.526,304.053 151.996,303.644 150.131 L 303.305 148.583 303.276 149.767 C 303.233 151.579,303.793 152.523,306.460 155.131 C 312.810 161.343,313.404 161.282,321.754 153.559 C 322.905 152.495,325.083 150.504,326.594 149.136 C 328.105 147.768,329.801 146.213,330.362 145.681 C 331.950 144.174,338.656 136.777,339.133 136.006 C 339.368 135.625,339.905 134.941,340.326 134.485 C 343.913 130.597,342.789 126.201,337.249 122.454 C 336.717 122.094,335.660 121.247,334.900 120.570 C 331.171 117.253,330.617 117.196,328.222 119.882 C 321.490 127.432,321.392 127.372,323.205 116.818 C 324.128 111.445,322.916 108.419,319.209 106.846 C 318.717 106.637,317.927 106.177,317.455 105.824 C 316.073 104.793,310.396 102.346,307.977 101.739 C 307.429 101.601,306.731 101.421,306.427 101.339 C 306.123 101.256,305.563 101.399,305.183 101.657 M132.688 108.370 C 130.926 108.773,125.079 111.026,122.715 112.212 C 116.674 115.244,115.623 116.578,117.112 119.316 C 119.705 124.081,122.819 124.547,129.095 121.110 C 131.249 119.930,131.864 119.635,135.591 117.992 C 139.762 116.153,140.733 115.324,140.894 113.459 C 141.194 109.989,136.996 107.386,132.688 108.370 M136.455 108.717 C 140.319 110.924,139.891 114.480,135.539 116.335 C 134.047 116.971,132.329 117.749,131.721 118.064 C 131.113 118.380,129.744 119.073,128.680 119.606 C 127.616 120.139,126.123 120.902,125.363 121.302 C 122.655 122.727,119.923 122.139,118.183 119.756 C 116.436 117.365,116.825 115.994,119.696 114.417 C 120.228 114.124,120.850 113.764,121.078 113.616 C 121.836 113.124,128.943 110.060,129.786 109.862 C 130.242 109.755,130.988 109.475,131.444 109.241 C 133.046 108.420,135.488 108.165,136.455 108.717 M82.791 163.116 C 80.359 163.231,77.435 163.468,76.295 163.644 C 75.155 163.819,73.787 163.952,73.255 163.938 C 72.587 163.921,71.841 164.208,70.844 164.866 C 70.050 165.390,69.172 165.891,68.892 165.979 C 66.184 166.839,65.249 171.799,67.206 174.932 C 67.493 175.392,67.495 175.834,67.215 177.246 C 66.193 182.410,66.005 192.789,66.858 196.959 C 67.417 199.691,67.373 202.275,66.733 204.225 C 65.753 207.211,66.326 210.145,68.196 211.724 C 68.774 212.212,69.558 212.904,69.938 213.263 C 72.799 215.958,88.937 217.900,95.243 216.308 C 101.712 214.675,105.724 212.157,107.833 208.407 C 108.352 207.484,109.034 206.396,109.348 205.990 C 109.662 205.584,110.205 204.444,110.553 203.455 C 111.189 201.654,111.679 200.800,111.679 201.495 C 111.679 202.046,113.320 205.411,114.096 206.451 C 114.475 206.958,115.050 208.029,115.374 208.831 C 117.309 213.612,125.817 217.323,133.794 216.863 C 142.742 216.348,147.676 213.920,150.643 208.569 C 151.149 207.657,151.908 206.351,152.330 205.667 C 152.752 204.983,153.230 203.922,153.392 203.309 C 154.146 200.453,154.427 200.633,156.876 205.523 C 161.083 213.924,166.031 216.724,176.667 216.724 C 185.420 216.724,191.375 214.221,193.910 209.477 C 194.339 208.674,194.853 207.826,195.053 207.593 C 195.253 207.359,195.724 206.258,196.101 205.146 C 196.905 202.768,196.947 202.710,197.535 203.198 C 197.967 203.557,199.309 206.295,199.309 206.819 C 199.309 206.958,199.682 207.870,200.138 208.846 C 200.594 209.821,200.968 210.742,200.968 210.891 C 200.968 211.311,203.140 213.723,204.398 214.698 C 207.883 217.401,212.883 217.391,216.097 214.674 C 217.092 213.834,217.405 212.927,217.828 209.667 C 218.382 205.389,218.265 205.667,219.519 205.667 C 220.972 205.667,221.544 206.000,221.992 207.108 C 222.870 209.273,227.347 213.740,229.786 214.885 C 237.850 218.668,243.472 216.131,245.313 207.878 C 246.391 203.045,246.497 202.752,247.307 202.383 C 247.706 202.201,248.054 202.088,248.081 202.132 C 248.107 202.176,248.325 202.526,248.565 202.911 C 248.805 203.296,249.225 204.322,249.498 205.190 C 249.772 206.059,250.284 207.112,250.636 207.531 C 250.988 207.950,251.759 209.052,252.350 209.979 C 258.673 219.903,282.419 218.795,287.674 208.330 C 288.560 206.566,288.500 206.624,289.005 207.044 C 289.237 207.236,289.426 207.786,289.426 208.265 C 289.426 209.696,293.294 214.050,294.851 214.373 C 295.288 214.464,296.567 214.790,297.693 215.098 C 308.684 218.102,329.664 217.156,335.772 213.380 C 341.954 209.560,337.554 201.599,328.680 200.549 C 327.844 200.450,326.413 200.203,325.501 200.001 C 324.589 199.799,322.039 199.605,319.834 199.570 C 314.290 199.482,314.029 199.433,314.029 198.468 C 314.029 197.880,313.882 197.667,313.429 197.600 C 312.598 197.478,312.491 196.928,313.258 196.720 C 313.606 196.626,316.628 196.421,319.972 196.265 C 327.059 195.935,328.490 195.508,329.707 193.359 C 330.958 191.150,330.433 187.293,328.708 186.017 C 328.240 185.671,327.787 185.169,327.702 184.902 C 327.439 184.074,323.809 182.489,321.420 182.159 C 318.126 181.705,315.622 181.129,315.403 180.774 C 315.253 180.532,315.060 180.532,314.607 180.775 C 313.585 181.321,312.923 180.899,312.923 179.702 L 312.923 178.654 317.554 178.435 C 320.100 178.315,324.610 178.196,327.574 178.171 C 333.621 178.119,334.509 177.939,336.365 176.390 C 338.886 174.284,339.397 172.315,338.088 169.749 C 337.527 168.649,334.591 165.865,333.990 165.862 C 333.793 165.861,333.380 165.625,333.072 165.338 C 331.025 163.431,313.607 162.283,303.386 163.382 C 295.551 164.224,294.328 164.446,293.577 165.166 C 293.178 165.548,292.709 165.860,292.535 165.860 C 292.361 165.860,292.119 166.023,291.997 166.221 C 291.876 166.420,291.308 166.933,290.736 167.363 C 290.164 167.792,289.618 168.469,289.524 168.868 C 289.162 170.395,288.606 170.671,287.650 169.797 C 284.579 166.991,281.370 164.884,279.337 164.337 C 274.830 163.126,265.904 162.672,262.652 163.488 C 261.794 163.703,260.283 163.966,259.295 164.073 C 256.413 164.383,251.340 167.936,251.289 169.679 C 251.283 169.879,250.919 170.345,250.480 170.714 C 249.981 171.135,249.612 171.774,249.494 172.424 C 248.583 177.444,246.630 177.714,245.505 172.975 C 244.592 169.133,242.057 165.305,239.885 164.489 C 239.386 164.301,238.525 163.911,237.972 163.622 C 235.858 162.516,229.221 163.572,228.644 165.106 C 228.586 165.260,228.136 165.835,227.644 166.383 C 227.152 166.932,226.663 167.659,226.557 167.999 C 225.878 170.183,224.641 171.629,223.963 171.034 C 223.707 170.808,222.977 170.363,222.342 170.044 C 221.707 169.725,221.103 169.197,221.000 168.871 C 219.744 164.916,209.544 161.483,205.485 163.649 C 204.630 164.105,203.697 164.478,203.411 164.478 C 203.125 164.478,202.755 164.776,202.590 165.139 C 202.424 165.502,201.998 165.932,201.643 166.094 C 201.200 166.296,200.865 166.831,200.579 167.795 C 200.008 169.717,198.553 172.612,197.695 173.533 L 196.988 174.292 196.760 173.186 C 195.861 168.829,192.437 164.202,190.111 164.202 C 189.906 164.202,189.203 163.944,188.550 163.628 C 186.433 162.605,179.682 163.811,179.682 165.213 C 179.682 165.406,179.325 165.973,178.889 166.473 C 177.069 168.558,176.122 171.267,175.949 174.887 C 175.823 177.528,175.715 177.811,175.123 177.036 C 174.849 176.677,174.765 176.142,174.865 175.397 C 175.038 174.120,174.312 170.374,173.770 169.743 C 173.568 169.508,173.088 168.632,172.703 167.795 C 170.794 163.643,164.943 161.863,160.442 164.065 C 157.379 165.564,154.250 172.138,154.250 177.074 C 154.250 177.439,153.509 176.439,153.177 175.625 C 152.979 175.142,152.580 174.531,152.290 174.269 C 152.000 174.006,151.762 173.677,151.762 173.538 C 151.762 173.102,150.056 170.783,148.872 169.610 C 148.249 168.992,147.278 167.961,146.716 167.318 C 146.154 166.676,145.287 165.956,144.789 165.719 C 144.291 165.482,143.557 165.106,143.156 164.884 C 142.756 164.661,141.699 164.359,140.807 164.211 C 139.915 164.063,138.189 163.745,136.973 163.505 C 132.588 162.638,121.251 163.666,119.468 165.092 C 117.502 166.664,115.629 168.822,114.029 171.357 C 113.877 171.598,113.552 171.948,113.307 172.134 C 113.062 172.320,112.720 172.851,112.547 173.313 C 112.374 173.775,112.093 174.527,111.922 174.983 C 111.479 176.170,111.232 176.030,110.336 174.084 C 109.314 171.864,105.224 167.651,102.524 166.036 C 101.981 165.712,101.191 165.204,100.769 164.908 C 100.295 164.576,99.378 164.325,98.372 164.253 C 97.476 164.188,96.676 164.025,96.593 163.892 C 96.510 163.758,95.859 163.648,95.146 163.647 C 94.433 163.647,93.414 163.534,92.882 163.398 C 91.324 162.998,87.538 162.892,82.791 163.116 M81.231 165.473 C 81.918 165.615,82.229 165.869,82.433 166.454 L 82.708 167.243 86.558 167.243 L 90.408 167.243 90.570 166.432 C 90.835 165.107,95.596 164.728,98.026 165.838 C 104.778 168.921,107.918 172.372,108.644 177.510 C 109.141 181.027,107.761 185.865,105.737 187.699 C 104.144 189.142,104.117 191.054,105.670 192.344 C 105.885 192.521,106.545 193.695,107.139 194.951 C 110.932 202.983,105.581 211.784,95.556 214.002 C 92.029 214.782,80.957 214.611,76.819 213.712 C 69.150 212.046,65.588 208.058,68.669 204.589 C 70.202 202.863,70.338 202.421,69.792 200.929 C 68.996 198.752,68.864 198.100,68.571 194.886 C 68.009 188.726,68.402 180.821,69.399 178.196 C 70.239 175.985,70.123 175.174,68.694 173.295 C 65.933 169.664,67.576 167.599,75.052 165.305 C 75.915 165.041,79.622 165.141,81.231 165.473 M126.854 165.347 L 128.667 165.663 127.213 166.326 C 125.043 167.317,125.439 167.475,131.859 168.182 C 132.968 168.304,136.190 168.017,137.871 167.646 C 139.053 167.385,138.552 166.735,136.789 166.240 C 134.737 165.664,135.151 165.357,138.018 165.327 C 147.158 165.232,152.594 175.360,152.251 191.845 C 151.896 208.895,147.052 214.518,132.708 214.533 C 124.760 214.541,121.516 213.213,117.047 208.120 C 115.949 206.868,114.762 203.883,113.269 198.618 C 112.845 197.123,112.853 181.110,113.279 179.406 C 114.495 174.533,115.722 171.270,116.725 170.245 C 116.927 170.038,117.307 169.558,117.568 169.178 C 118.601 167.678,122.926 165.159,124.649 165.055 C 124.865 165.042,125.857 165.173,126.854 165.347 M163.303 165.461 C 163.856 165.630,163.705 166.022,162.958 166.363 C 161.760 166.909,162.107 167.459,163.782 167.669 C 166.633 168.025,167.504 167.314,165.458 166.302 C 164.470 165.812,164.431 165.749,164.904 165.403 C 166.821 164.002,170.227 166.057,171.839 169.588 L 172.594 171.241 172.808 181.751 C 173.171 199.677,173.443 201.106,176.485 201.106 C 178.332 201.106,178.262 201.934,178.278 179.820 C 178.285 170.155,179.035 167.083,181.755 165.564 C 182.876 164.939,184.675 165.330,183.962 166.043 C 182.935 167.070,183.532 167.657,185.602 167.657 C 187.798 167.657,188.126 167.336,186.997 166.290 L 186.254 165.601 186.955 165.281 C 189.637 164.059,193.722 168.791,194.615 174.153 C 194.779 175.142,195.058 176.821,195.234 177.885 C 195.776 181.166,195.678 196.700,195.097 199.773 C 192.981 210.949,188.460 214.520,176.446 214.508 C 165.243 214.496,158.976 210.056,157.141 200.829 C 156.929 199.765,156.568 198.023,156.337 196.959 C 155.748 194.236,155.745 181.746,156.333 177.885 C 156.565 176.365,156.885 174.188,157.045 173.048 C 157.804 167.636,160.344 164.557,163.303 165.461 M209.261 165.368 C 209.793 165.346,210.877 165.250,211.669 165.154 C 212.833 165.013,213.259 165.081,213.881 165.510 C 214.304 165.802,215.075 166.210,215.594 166.417 C 217.100 167.019,221.153 171.300,223.303 174.562 C 224.370 176.179,225.309 177.393,225.391 177.260 C 225.529 177.036,225.833 176.033,227.292 170.981 C 228.427 167.053,230.539 164.774,232.660 165.191 C 234.119 165.477,234.534 166.027,233.488 166.290 C 231.766 166.722,232.308 167.389,234.592 167.649 C 236.925 167.915,237.431 166.513,235.186 166.004 L 234.278 165.798 235.522 165.404 C 237.983 164.625,240.262 166.150,242.195 169.869 C 245.744 176.695,246.123 201.140,242.808 209.419 C 240.439 215.338,234.535 216.238,228.405 211.616 C 226.067 209.852,223.059 206.148,222.670 204.552 C 222.576 204.167,221.760 203.065,220.856 202.103 C 219.952 201.141,219.203 200.088,219.193 199.762 C 219.182 199.437,218.985 199.793,218.755 200.553 C 218.524 201.313,218.013 202.276,217.618 202.694 C 216.954 203.395,216.884 203.715,216.680 206.950 C 216.309 212.828,214.877 214.513,210.249 214.513 C 201.911 214.513,199.278 207.478,199.671 186.251 C 199.958 170.719,202.024 164.598,206.773 165.211 C 207.609 165.318,208.728 165.389,209.261 165.368 M264.505 165.578 C 264.746 165.705,264.327 165.998,263.314 166.409 C 261.320 167.218,261.538 167.391,265.182 167.896 C 268.285 168.327,272.833 168.115,274.009 167.485 C 274.808 167.058,274.150 166.477,272.610 166.250 C 270.642 165.960,270.024 165.685,270.905 165.492 C 281.684 163.125,291.012 173.302,287.459 183.552 C 286.569 186.119,285.893 186.317,277.982 186.317 C 270.295 186.317,270.076 186.192,270.076 181.810 C 270.076 178.564,268.262 177.499,265.321 179.020 L 264.464 179.463 264.636 183.512 C 265.306 199.286,265.356 199.650,266.957 200.319 C 269.552 201.404,270.047 200.789,270.185 196.306 C 270.327 191.686,271.325 190.375,273.900 191.424 C 275.458 192.060,278.377 192.065,279.279 191.433 C 282.188 189.395,286.590 193.940,287.108 199.516 C 288.040 209.548,280.105 215.487,267.035 214.539 C 255.846 213.726,250.731 208.501,249.016 196.130 C 248.527 192.597,248.890 180.671,249.551 178.576 C 249.863 177.588,250.201 176.282,250.302 175.674 C 250.504 174.458,252.043 171.267,253.185 169.694 C 255.637 166.319,261.718 164.108,264.505 165.578 M304.907 165.463 C 306.281 165.749,307.213 166.115,307.671 166.548 C 308.332 167.173,308.551 167.204,312.647 167.247 C 319.528 167.319,319.244 167.349,319.449 166.531 C 320.286 163.199,333.929 165.932,335.956 169.837 C 338.892 175.495,334.150 177.192,315.397 177.194 C 309.834 177.194,309.883 177.175,309.883 179.399 C 309.883 181.063,310.415 182.170,311.216 182.170 C 311.476 182.170,312.155 182.487,312.725 182.874 C 313.724 183.553,313.892 183.575,317.557 183.512 C 320.928 183.454,321.479 183.511,322.460 184.017 C 323.068 184.330,323.877 184.683,324.257 184.800 C 326.153 185.384,328.103 187.910,328.327 190.073 C 328.524 191.990,327.872 192.910,325.481 194.087 L 323.685 194.971 317.134 195.193 C 309.679 195.446,309.883 195.374,309.883 197.780 C 309.883 199.888,310.314 200.319,312.662 200.554 C 314.615 200.750,314.620 200.753,314.049 201.285 C 313.261 202.019,313.332 202.585,314.236 202.779 C 314.654 202.869,315.490 203.151,316.093 203.406 C 317.858 204.152,319.550 204.021,320.782 203.041 C 322.688 201.526,322.845 201.478,325.363 201.635 C 334.913 202.231,340.242 208.689,333.855 211.926 C 326.220 215.795,300.965 215.454,294.286 211.392 C 290.171 208.889,289.686 206.981,292.474 204.259 C 294.556 202.226,294.628 201.983,293.699 200.134 C 293.287 199.315,292.467 191.477,292.467 188.355 C 292.466 186.251,292.714 183.749,293.353 179.406 C 293.991 175.074,293.980 174.908,293.026 174.292 C 289.030 171.708,290.368 167.826,295.784 166.289 C 296.773 166.009,298.141 165.620,298.825 165.424 C 300.525 164.938,302.444 164.950,304.907 165.463 M208.017 166.239 C 206.293 166.889,206.088 167.519,207.600 167.519 C 208.037 167.519,208.702 167.636,209.077 167.778 C 209.772 168.043,211.748 167.632,211.748 167.223 C 211.748 166.360,209.365 165.731,208.017 166.239 M291.636 178.231 C 291.635 180.301,291.620 180.346,291.222 179.581 C 290.570 178.331,290.784 176.088,291.555 176.088 C 291.601 176.088,291.637 177.053,291.636 178.231 M175.971 180.914 C 175.868 181.461,175.680 181.844,175.552 181.766 C 175.180 181.536,175.039 179.606,175.340 178.853 L 175.615 178.162 175.886 179.041 C 176.035 179.524,176.073 180.367,175.971 180.914 M87.130 179.060 C 86.111 179.939,86.977 182.221,88.466 182.582 C 90.571 183.093,92.462 179.399,90.391 178.823 C 89.101 178.464,87.703 178.566,87.130 179.060 M129.371 178.935 C 128.513 179.371,128.519 179.153,129.044 190.187 C 129.476 199.274,129.543 199.623,131.063 200.578 L 132.063 201.206 133.028 200.550 C 134.283 199.697,134.274 199.797,134.086 188.574 C 133.941 179.869,133.903 179.339,133.396 178.968 C 132.730 178.482,130.303 178.462,129.371 178.935 M267.715 183.389 C 268.186 186.645,270.185 187.699,275.894 187.699 C 278.001 187.699,278.015 187.704,277.886 188.381 C 277.814 188.756,277.551 189.113,277.302 189.174 C 276.366 189.404,275.235 189.347,274.881 189.054 C 274.606 188.826,274.078 188.963,272.758 189.607 C 271.791 190.078,270.885 190.463,270.745 190.463 C 269.656 190.464,267.387 194.421,267.272 196.519 C 267.175 198.296,266.799 192.919,266.733 188.804 C 266.628 182.298,267.145 179.445,267.715 183.389 M175.928 185.835 C 175.840 186.255,175.653 186.527,175.513 186.441 C 175.216 186.257,175.175 184.647,175.449 183.931 C 175.729 183.203,176.140 184.837,175.928 185.835 M290.981 188.987 C 291.052 191.243,291.222 193.730,291.359 194.512 C 292.115 198.822,291.931 202.520,290.947 202.799 C 290.327 202.974,289.469 200.969,289.191 198.699 C 288.699 194.681,287.486 192.642,284.065 190.090 C 282.907 189.226,282.502 189.081,281.248 189.081 C 280.042 189.081,279.705 188.971,279.345 188.459 L 278.908 187.837 281.195 187.674 C 285.114 187.394,287.794 186.714,288.642 185.786 C 289.253 185.117,290.392 184.603,290.761 184.830 C 290.811 184.860,290.910 186.731,290.981 188.987 M312.854 185.096 C 311.695 185.720,311.854 185.764,315.273 185.764 C 318.305 185.764,319.547 185.402,317.554 185.100 C 314.944 184.704,313.584 184.703,312.854 185.096 M110.416 187.304 C 110.769 187.657,110.846 188.417,110.828 191.381 C 110.816 193.385,110.742 194.862,110.662 194.665 C 110.583 194.467,110.045 194.006,109.467 193.642 C 107.764 192.567,107.151 190.845,107.879 189.182 C 108.816 187.042,109.584 186.473,110.416 187.304 M87.805 196.841 C 86.840 197.600,86.760 199.397,87.670 199.883 C 88.500 200.328,90.688 200.036,91.137 199.422 C 92.649 197.356,89.879 195.210,87.805 196.841 " stroke="none" fill="#ccbca8" fill-rule="evenodd"></path><path id="path4" d="M75.052 165.305 C 67.576 167.599,65.933 169.664,68.694 173.295 C 70.123 175.174,70.239 175.985,69.399 178.196 C 68.402 180.821,68.009 188.726,68.571 194.886 C 68.864 198.100,68.996 198.752,69.792 200.929 C 70.338 202.421,70.202 202.863,68.669 204.589 C 65.588 208.058,69.150 212.046,76.819 213.712 C 80.957 214.611,92.029 214.782,95.556 214.002 C 105.581 211.784,110.932 202.983,107.139 194.951 C 106.545 193.695,105.885 192.521,105.670 192.344 C 104.117 191.054,104.144 189.142,105.737 187.699 C 107.761 185.865,109.141 181.027,108.644 177.510 C 107.918 172.372,104.778 168.921,98.026 165.838 C 95.596 164.728,90.835 165.107,90.570 166.432 L 90.408 167.243 86.558 167.243 L 82.708 167.243 82.433 166.454 C 82.229 165.869,81.918 165.615,81.231 165.473 C 79.622 165.141,75.915 165.041,75.052 165.305 M123.566 165.290 C 121.715 165.857,118.356 168.034,117.568 169.178 C 117.307 169.558,116.927 170.038,116.725 170.245 C 115.722 171.270,114.495 174.533,113.279 179.406 C 112.853 181.110,112.845 197.123,113.269 198.618 C 114.762 203.883,115.949 206.868,117.047 208.120 C 121.516 213.213,124.760 214.541,132.708 214.533 C 147.052 214.518,151.896 208.895,152.251 191.845 C 152.594 175.360,147.158 165.232,138.018 165.327 C 135.151 165.357,134.737 165.664,136.789 166.240 C 138.552 166.735,139.053 167.385,137.871 167.646 C 136.190 168.017,132.968 168.304,131.859 168.182 C 125.439 167.475,125.043 167.317,127.213 166.326 L 128.667 165.663 126.854 165.347 C 124.827 164.994,124.550 164.989,123.566 165.290 M160.100 166.077 C 158.714 167.388,157.427 170.323,157.045 173.048 C 156.885 174.188,156.565 176.365,156.333 177.885 C 155.745 181.746,155.748 194.236,156.337 196.959 C 156.568 198.023,156.929 199.765,157.141 200.829 C 158.976 210.056,165.243 214.496,176.446 214.508 C 188.460 214.520,192.981 210.949,195.097 199.773 C 195.678 196.700,195.776 181.166,195.234 177.885 C 195.058 176.821,194.779 175.142,194.615 174.153 C 193.722 168.791,189.637 164.059,186.955 165.281 L 186.254 165.601 186.997 166.290 C 188.126 167.336,187.798 167.657,185.602 167.657 C 183.532 167.657,182.935 167.070,183.962 166.043 C 184.675 165.330,182.876 164.939,181.755 165.564 C 179.035 167.083,178.285 170.155,178.278 179.820 C 178.262 201.934,178.332 201.106,176.485 201.106 C 173.443 201.106,173.171 199.677,172.808 181.751 L 172.594 171.241 171.839 169.588 C 170.227 166.057,166.821 164.002,164.904 165.403 C 164.431 165.749,164.470 165.812,165.458 166.302 C 167.504 167.314,166.633 168.025,163.782 167.669 C 162.107 167.459,161.760 166.909,162.958 166.363 C 164.129 165.829,163.889 165.516,162.072 165.203 C 161.324 165.074,161.019 165.209,160.100 166.077 M204.229 165.921 C 200.838 168.925,199.915 173.039,199.671 186.251 C 199.278 207.478,201.911 214.513,210.249 214.513 C 214.877 214.513,216.309 212.828,216.680 206.950 C 216.884 203.715,216.954 203.395,217.618 202.694 C 218.013 202.276,218.524 201.313,218.755 200.553 C 218.985 199.793,219.182 199.437,219.193 199.762 C 219.203 200.088,219.952 201.141,220.856 202.103 C 221.760 203.065,222.576 204.167,222.670 204.552 C 223.059 206.148,226.067 209.852,228.405 211.616 C 234.535 216.238,240.439 215.338,242.808 209.419 C 246.123 201.140,245.744 176.695,242.195 169.869 C 240.262 166.150,237.983 164.625,235.522 165.404 L 234.278 165.798 235.186 166.004 C 237.431 166.513,236.925 167.915,234.592 167.649 C 232.308 167.389,231.766 166.722,233.488 166.290 C 234.534 166.027,234.119 165.477,232.660 165.191 C 230.539 164.774,228.427 167.053,227.292 170.981 C 225.833 176.033,225.529 177.036,225.391 177.260 C 225.309 177.393,224.370 176.179,223.303 174.562 C 221.153 171.300,217.100 167.019,215.594 166.417 C 215.075 166.210,214.304 165.802,213.881 165.510 C 213.259 165.081,212.833 165.013,211.669 165.154 C 209.518 165.415,208.454 165.427,206.773 165.211 C 205.323 165.024,205.205 165.057,204.229 165.921 M258.368 165.895 C 254.289 167.708,250.954 171.751,250.302 175.674 C 250.201 176.282,249.863 177.588,249.551 178.576 C 248.890 180.671,248.527 192.597,249.016 196.130 C 250.731 208.501,255.846 213.726,267.035 214.539 C 278.252 215.353,285.642 211.242,286.940 203.468 C 288.127 196.356,283.231 188.665,279.279 191.433 C 278.377 192.065,275.458 192.060,273.900 191.424 C 271.325 190.375,270.327 191.686,270.185 196.306 C 270.047 200.789,269.552 201.404,266.957 200.319 C 265.356 199.650,265.306 199.286,264.636 183.512 L 264.464 179.463 265.321 179.020 C 268.262 177.499,270.076 178.564,270.076 181.810 C 270.076 186.192,270.295 186.317,277.982 186.317 C 285.893 186.317,286.569 186.119,287.459 183.552 C 291.012 173.302,281.684 163.125,270.905 165.492 C 270.024 165.685,270.642 165.960,272.610 166.250 C 274.150 166.477,274.808 167.058,274.009 167.485 C 272.833 168.115,268.285 168.327,265.182 167.896 C 261.538 167.391,261.320 167.218,263.314 166.409 C 265.153 165.663,264.955 165.451,262.198 165.217 C 260.446 165.068,260.083 165.132,258.368 165.895 M298.825 165.424 C 298.141 165.620,296.773 166.009,295.784 166.289 C 290.368 167.826,289.030 171.708,293.026 174.292 C 293.980 174.908,293.991 175.074,293.353 179.406 C 292.714 183.749,292.466 186.251,292.467 188.355 C 292.467 191.477,293.287 199.315,293.699 200.134 C 294.628 201.983,294.556 202.226,292.474 204.259 C 289.686 206.981,290.171 208.889,294.286 211.392 C 300.965 215.454,326.220 215.795,333.855 211.926 C 340.242 208.689,334.913 202.231,325.363 201.635 C 322.845 201.478,322.688 201.526,320.782 203.041 C 319.550 204.021,317.858 204.152,316.093 203.406 C 315.490 203.151,314.654 202.869,314.236 202.779 C 313.332 202.585,313.261 202.019,314.049 201.285 C 314.620 200.753,314.615 200.750,312.662 200.554 C 310.314 200.319,309.883 199.888,309.883 197.780 C 309.883 195.374,309.679 195.446,317.134 195.193 L 323.685 194.971 325.481 194.087 C 327.872 192.910,328.524 191.990,328.327 190.073 C 328.103 187.910,326.153 185.384,324.257 184.800 C 323.877 184.683,323.068 184.330,322.460 184.017 C 321.479 183.511,320.928 183.454,317.557 183.512 C 313.892 183.575,313.724 183.553,312.725 182.874 C 312.155 182.487,311.476 182.170,311.216 182.170 C 310.415 182.170,309.883 181.063,309.883 179.399 C 309.883 177.175,309.834 177.194,315.397 177.194 C 334.150 177.192,338.892 175.495,335.956 169.837 C 333.929 165.932,320.286 163.199,319.449 166.531 C 319.244 167.349,319.528 167.319,312.647 167.247 C 308.551 167.204,308.332 167.173,307.671 166.548 C 306.351 165.299,301.443 164.676,298.825 165.424 M210.765 166.441 C 211.306 166.760,211.748 167.112,211.748 167.223 C 211.748 167.632,209.772 168.043,209.077 167.778 C 208.702 167.636,208.037 167.519,207.600 167.519 C 206.088 167.519,206.293 166.889,208.017 166.239 C 209.256 165.772,209.685 165.803,210.765 166.441 M78.399 167.528 C 81.286 169.014,93.290 169.013,95.301 167.526 C 96.222 166.845,97.821 166.902,98.687 167.646 C 98.915 167.842,99.549 168.146,100.096 168.321 C 100.892 168.576,102.715 170.023,104.567 171.868 C 107.675 174.966,107.110 182.195,103.424 186.499 L 101.664 188.554 102.563 190.407 C 103.057 191.426,103.687 192.510,103.963 192.816 C 109.564 199.025,104.447 209.410,94.540 211.939 C 90.188 213.051,75.702 212.363,73.797 210.955 C 73.378 210.645,72.718 210.311,72.331 210.214 C 69.881 209.599,68.604 206.652,70.107 205.080 C 71.221 203.915,71.188 199.072,70.044 195.625 C 69.176 193.011,69.171 184.832,70.035 181.894 C 71.242 177.793,71.120 173.356,69.774 172.372 C 68.830 171.682,69.638 168.625,70.764 168.625 C 71.029 168.625,71.552 168.383,71.927 168.089 C 72.602 167.557,75.065 166.763,76.188 166.715 C 76.509 166.701,77.504 167.067,78.399 167.528 M302.280 167.362 C 305.069 169.255,324.257 168.923,324.257 166.982 C 324.257 166.316,329.698 167.061,331.030 167.910 C 331.486 168.200,332.266 168.698,332.764 169.015 C 335.598 170.821,332.317 174.570,327.470 175.065 C 326.691 175.144,323.962 175.469,321.405 175.787 C 317.964 176.214,316.611 176.287,316.200 176.067 C 315.804 175.855,315.114 175.854,313.800 176.065 C 312.786 176.228,311.577 176.344,311.115 176.323 C 308.740 176.214,308.019 177.445,308.777 180.314 C 309.428 182.777,309.402 182.964,308.176 184.689 C 306.411 187.175,318.291 188.022,320.966 185.601 C 321.485 185.132,322.734 185.309,323.428 185.949 C 323.656 186.160,324.278 186.612,324.810 186.955 C 326.830 188.256,325.815 191.383,323.084 192.274 C 322.285 192.534,321.482 192.865,321.300 193.009 C 320.832 193.379,318.382 193.725,313.891 194.056 C 308.349 194.465,308.926 194.047,308.851 197.708 C 308.769 201.721,308.866 202.173,309.776 202.000 C 310.331 201.893,310.737 202.134,311.767 203.178 C 314.256 205.702,321.480 205.904,324.036 203.521 C 324.645 202.954,324.950 202.860,325.694 203.010 C 326.196 203.112,327.419 203.347,328.411 203.532 C 329.491 203.735,330.727 204.203,331.490 204.699 C 332.192 205.155,332.978 205.655,333.237 205.808 C 334.242 206.404,334.124 208.533,333.041 209.360 C 330.554 211.256,322.419 212.587,313.437 212.568 C 307.112 212.554,299.234 211.795,297.824 211.063 C 297.388 210.837,296.376 210.506,295.575 210.326 C 294.202 210.019,294.072 209.913,293.293 208.476 C 292.209 206.475,292.230 206.331,293.849 204.588 C 295.634 202.668,295.646 202.262,294.069 197.117 C 293.461 195.135,293.694 181.732,294.375 179.550 C 295.243 176.766,295.239 174.905,294.363 173.943 C 291.182 170.450,292.795 167.824,298.647 166.967 C 300.963 166.628,301.242 166.658,302.280 167.362 M279.746 167.977 C 280.276 168.333,280.835 168.626,280.990 168.627 C 281.305 168.629,282.911 170.192,284.112 171.666 C 287.168 175.413,286.866 181.179,283.440 184.507 C 282.445 185.474,282.396 185.488,279.916 185.535 C 272.473 185.675,271.458 185.171,271.458 181.334 C 271.458 179.305,270.938 177.505,270.215 177.031 C 269.377 176.482,266.685 176.789,266.034 177.508 C 265.777 177.791,265.394 178.023,265.183 178.023 C 263.381 178.023,263.072 181.370,263.711 193.927 C 264.009 199.784,263.944 199.555,265.719 200.968 C 268.989 203.572,270.671 202.369,271.451 196.870 C 271.950 193.353,272.472 192.898,275.313 193.501 C 276.705 193.796,277.180 193.776,278.828 193.351 C 284.192 191.969,286.775 198.152,283.800 205.252 C 280.768 212.491,263.642 215.290,256.807 209.665 C 255.177 208.323,253.766 206.758,253.766 206.290 C 253.766 205.985,253.575 205.575,253.340 205.381 C 252.640 204.799,251.003 200.966,250.996 199.892 C 250.993 199.343,250.738 197.277,250.429 195.301 C 249.528 189.520,249.489 187.978,250.146 184.182 C 250.468 182.324,250.807 179.836,250.898 178.654 C 251.023 177.051,251.258 176.151,251.822 175.121 C 252.239 174.361,252.727 173.287,252.907 172.735 C 253.087 172.183,253.790 171.143,254.468 170.425 C 255.146 169.707,255.701 169.008,255.701 168.872 C 255.701 168.736,255.941 168.625,256.233 168.625 C 256.526 168.625,257.150 168.301,257.621 167.905 C 258.451 167.206,258.503 167.197,259.409 167.627 C 263.482 169.560,269.741 170.367,272.564 169.324 C 273.248 169.071,274.057 168.792,274.361 168.704 C 274.665 168.616,275.396 168.195,275.986 167.769 C 277.230 166.870,278.178 166.922,279.746 167.977 M123.645 167.643 C 126.689 169.635,133.804 170.444,136.973 169.157 C 137.429 168.972,138.550 168.550,139.464 168.220 L 141.126 167.618 142.410 168.208 C 144.416 169.130,147.616 172.579,147.616 173.820 C 147.616 173.995,147.913 174.810,148.276 175.631 C 148.897 177.035,149.352 179.326,150.132 184.985 C 150.536 187.906,150.312 194.207,149.709 196.959 C 149.475 198.023,149.282 199.314,149.279 199.827 C 149.275 200.632,147.827 204.430,147.052 205.667 C 146.909 205.895,146.552 206.524,146.259 207.064 C 142.660 213.688,125.647 214.603,119.543 208.500 C 117.686 206.643,116.736 205.258,116.415 203.939 C 116.238 203.217,115.848 202.222,115.547 201.728 C 115.245 201.234,114.996 200.394,114.993 199.862 C 114.990 199.330,114.793 198.148,114.556 197.236 C 113.804 194.349,113.707 185.702,114.386 182.020 C 114.693 180.354,115.014 178.412,115.100 177.703 C 115.185 176.995,115.500 175.938,115.799 175.354 C 116.099 174.770,116.428 173.822,116.531 173.249 C 116.705 172.282,119.851 168.625,120.508 168.625 C 120.622 168.625,121.077 168.314,121.519 167.934 C 122.445 167.137,122.798 167.089,123.645 167.643 M214.789 167.630 C 214.789 167.843,215.134 168.138,215.555 168.285 C 216.676 168.675,220.214 172.232,221.119 173.878 C 221.363 174.321,222.130 175.528,222.824 176.560 C 223.518 177.593,224.298 178.780,224.558 179.198 C 225.300 180.394,226.399 180.260,226.399 178.974 C 226.399 178.432,226.723 177.306,227.118 176.470 C 227.539 175.580,227.897 174.241,227.982 173.239 C 228.074 172.160,228.309 171.323,228.619 170.974 C 228.890 170.670,229.298 169.967,229.527 169.412 C 229.974 168.325,230.761 167.894,231.565 168.296 C 231.841 168.433,232.440 168.736,232.896 168.968 C 234.854 169.965,235.440 169.897,238.616 168.304 C 239.813 167.704,241.958 172.709,242.420 177.178 C 242.570 178.631,242.835 181.121,243.009 182.710 C 244.331 194.794,241.993 208.765,238.209 211.387 C 235.403 213.331,228.192 211.104,226.544 207.784 C 226.381 207.456,225.971 207.148,225.632 207.099 C 225.214 207.039,225.016 206.818,225.013 206.408 C 225.010 206.076,224.708 205.521,224.341 205.173 C 223.975 204.826,223.593 204.168,223.493 203.713 C 223.393 203.257,223.022 202.695,222.670 202.464 C 222.317 202.233,221.955 201.749,221.865 201.389 C 221.774 201.029,221.408 200.382,221.051 199.952 C 220.694 199.522,220.313 198.798,220.204 198.341 C 220.096 197.885,219.712 197.077,219.352 196.545 C 218.992 196.012,218.488 195.048,218.233 194.402 C 217.437 192.382,216.683 193.266,216.682 196.220 C 216.678 207.935,213.131 213.719,206.993 212.014 C 206.010 211.741,203.732 209.859,203.732 209.321 C 203.732 209.178,203.409 208.585,203.014 208.003 C 202.449 207.171,202.211 206.301,201.901 203.930 C 201.684 202.272,201.323 200.476,201.099 199.940 C 200.527 198.572,200.504 180.183,201.072 178.300 C 201.278 177.616,201.595 175.936,201.776 174.568 C 202.441 169.539,204.255 167.606,206.994 169.007 C 208.909 169.987,211.599 169.569,212.854 168.096 C 213.479 167.363,214.789 167.048,214.789 167.630 M170.425 170.579 C 171.183 173.488,171.619 177.659,171.651 182.308 C 171.773 200.204,171.820 200.559,174.231 201.759 C 176.655 202.965,180.577 201.810,179.689 200.151 C 179.169 199.179,179.280 174.654,179.814 172.357 C 180.719 168.468,181.231 168.004,183.482 169.035 C 185.339 169.885,186.432 169.911,187.699 169.136 C 190.012 167.720,191.557 168.647,191.961 171.692 C 192.067 172.489,192.350 173.586,192.591 174.131 C 192.884 174.792,193.148 176.865,193.386 180.373 C 194.777 200.882,191.794 209.273,182.170 211.919 C 177.818 213.115,168.396 212.426,165.893 210.727 C 165.377 210.377,164.804 210.090,164.621 210.090 C 163.320 210.090,159.749 205.349,159.255 202.964 C 159.088 202.161,158.742 201.184,158.485 200.792 C 156.820 198.252,157.051 175.312,158.777 171.666 C 159.173 170.829,159.498 169.930,159.500 169.668 C 159.505 168.680,160.674 168.273,162.026 168.789 C 163.835 169.479,165.740 169.596,166.549 169.067 C 166.920 168.824,167.399 168.625,167.614 168.625 C 167.828 168.625,168.165 168.431,168.361 168.194 C 168.908 167.536,169.943 168.732,170.425 170.579 M85.187 177.102 C 84.560 177.610,84.550 177.682,84.842 179.779 C 85.290 183.001,85.266 183.131,83.983 184.402 L 82.824 185.549 83.499 185.917 C 86.509 187.555,90.966 186.894,90.561 184.869 C 90.434 184.235,90.588 183.831,91.295 182.951 C 92.542 181.399,92.614 178.736,91.441 177.563 C 90.422 176.544,86.255 176.237,85.187 177.102 M130.550 177.187 C 130.058 177.304,129.218 177.733,128.684 178.140 L 127.713 178.881 127.713 188.005 C 127.713 198.160,127.841 199.226,129.228 200.613 C 130.911 202.296,132.807 202.550,134.092 201.265 L 134.900 200.457 134.900 189.145 C 134.900 175.746,135.036 176.121,130.550 177.187 M90.391 178.823 C 90.923 178.971,91.118 179.254,91.250 180.066 C 91.582 182.103,88.564 183.443,87.307 181.817 C 85.628 179.647,87.349 177.976,90.391 178.823 M133.396 178.968 C 133.903 179.339,133.941 179.869,134.086 188.574 C 134.274 199.797,134.283 199.697,133.028 200.550 L 132.063 201.206 131.063 200.578 C 129.543 199.623,129.476 199.274,129.044 190.187 C 128.519 179.153,128.513 179.371,129.371 178.935 C 130.303 178.462,132.730 178.482,133.396 178.968 M226.399 180.772 C 226.399 181.067,226.524 181.385,226.676 181.479 C 226.833 181.576,226.952 181.344,226.952 180.942 C 226.952 180.553,226.828 180.235,226.676 180.235 C 226.524 180.235,226.399 180.476,226.399 180.772 M317.554 185.100 C 319.547 185.402,318.305 185.764,315.273 185.764 C 311.854 185.764,311.695 185.720,312.854 185.096 C 313.584 184.703,314.944 184.704,317.554 185.100 M85.280 194.519 C 84.706 194.633,84.691 199.742,85.261 201.029 C 85.727 202.083,89.440 202.038,90.897 200.960 C 95.282 197.719,91.422 193.293,85.280 194.519 M91.069 196.883 C 92.110 198.368,91.387 199.849,89.519 200.059 C 87.739 200.260,87.077 199.835,87.077 198.490 C 87.077 196.524,89.995 195.349,91.069 196.883 " stroke="none" fill="#463768" fill-rule="evenodd"></path></g></svg>